<svg width="287" height="247" viewBox="0 0 287 247" fill="none" xmlns="http://www.w3.org/2000/svg">
<path fill-rule="evenodd" clip-rule="evenodd" d="M0 -40H287V247H0V-40Z" fill="white"/>
<path d="M82.6557 85.4209L96.6066 121.412C97.1806 122.791 97.8024 123.738 98.4721 124.256C99.1418 124.77 99.7636 125.046 100.338 125.085V126.233C99.3421 126.155 98.1462 126.108 96.7501 126.09C95.3539 126.072 93.9279 126.063 92.472 126.063C90.7889 126.063 89.2193 126.072 87.7634 126.09C86.3105 126.108 85.1251 126.155 84.2073 126.233V125.085C86.1595 125.007 87.4032 124.673 87.9383 124.081C88.4734 123.489 88.3583 122.217 87.593 120.264L77.4897 92.9994L78.5256 91.7349L69.3416 115.556C68.3461 118.082 67.8677 120.025 67.9066 121.386C67.9454 122.743 68.4043 123.689 69.2833 124.224C70.1622 124.759 71.4059 125.046 73.0143 125.085V126.233C71.7886 126.155 70.6017 126.108 69.4537 126.09C68.3057 126.072 67.1577 126.063 66.0097 126.063C65.1696 126.063 64.3759 126.072 63.6285 126.09C62.8841 126.108 62.2249 126.155 61.6509 126.233V125.085C62.491 124.894 63.3221 124.396 64.1442 123.592C64.9693 122.788 65.7645 121.392 66.5299 119.403L79.6736 85.4209C80.131 85.4597 80.6273 85.4792 81.1624 85.4792C81.7005 85.4792 82.1983 85.4597 82.6557 85.4209ZM87.6513 109.704V110.852H70.5479L71.1219 109.704H87.6513ZM117.845 85.5957V86.7437C116.544 86.7796 115.559 86.9231 114.889 87.1742C114.22 87.4224 113.77 87.8813 113.54 88.5509C113.309 89.2206 113.194 90.2625 113.194 91.6766V120.61C113.194 121.832 113.299 122.761 113.508 123.395C113.72 124.025 114.114 124.436 114.688 124.628C115.262 124.819 116.084 124.915 117.154 124.915H120.428C122.416 124.915 124.099 124.436 125.477 123.48C126.855 122.523 127.964 121.145 128.804 119.345C129.647 117.545 130.223 115.365 130.531 112.802H131.849C131.736 114.064 131.679 115.71 131.679 117.74C131.679 118.58 131.707 119.785 131.764 121.354C131.821 122.924 131.926 124.55 132.078 126.233C130.126 126.155 127.925 126.108 125.477 126.09C123.029 126.072 120.848 126.063 118.934 126.063C117.709 126.063 116.063 126.063 113.997 126.063C111.931 126.063 109.74 126.072 107.423 126.09C105.109 126.108 102.939 126.155 100.912 126.233V125.085C102.173 125.007 103.119 124.855 103.75 124.628C104.384 124.398 104.806 123.939 105.015 123.251C105.224 122.56 105.329 121.526 105.329 120.148V91.6766C105.329 90.2625 105.224 89.2206 105.015 88.5509C104.806 87.8813 104.384 87.4224 103.75 87.1742C103.119 86.9231 102.173 86.7796 100.912 86.7437V85.5957C101.868 85.6316 103.092 85.669 104.584 85.7079C106.076 85.7467 107.683 85.7662 109.405 85.7662C110.975 85.7662 112.525 85.7467 114.055 85.7079C115.586 85.669 116.849 85.6316 117.845 85.5957ZM165.487 85.5957C165.334 87.3536 165.228 89.0652 165.168 90.7304C165.111 92.3956 165.083 93.6676 165.083 94.5466C165.083 95.4285 165.102 96.2521 165.141 97.0174C165.18 97.7828 165.219 98.4524 165.258 99.0264H163.935C163.4 95.9651 162.75 93.5645 161.984 91.8245C161.219 90.0816 160.214 88.8275 158.971 88.0622C157.727 87.2968 156.092 86.9142 154.065 86.9142H152.226V119.632C152.226 121.202 152.37 122.369 152.657 123.134C152.944 123.9 153.527 124.407 154.406 124.655C155.288 124.903 156.57 125.046 158.253 125.085V126.233C157.105 126.155 155.612 126.108 153.773 126.09C151.938 126.072 150.063 126.063 148.15 126.063C146.162 126.063 144.296 126.072 142.553 126.09C140.814 126.108 139.407 126.155 138.334 126.233V125.085C139.981 125.046 141.244 124.903 142.123 124.655C143.005 124.407 143.598 123.9 143.903 123.134C144.208 122.369 144.361 121.202 144.361 119.632V86.9142H142.468C140.477 86.9142 138.851 87.2968 137.589 88.0622C136.328 88.8275 135.314 90.0816 134.549 91.8245C133.784 93.5645 133.151 95.9651 132.652 99.0264H131.334C131.408 98.4524 131.455 97.7828 131.473 97.0174C131.494 96.2521 131.504 95.4285 131.504 94.5466C131.504 93.6676 131.476 92.3956 131.419 90.7304C131.362 89.0652 131.257 87.3536 131.105 85.5957C132.788 85.6316 134.643 85.669 136.67 85.7079C138.7 85.7467 140.728 85.7662 142.755 85.7662C144.782 85.7662 146.639 85.7662 148.325 85.7662C149.969 85.7662 151.805 85.7662 153.832 85.7662C155.862 85.7662 157.89 85.7467 159.917 85.7079C161.947 85.669 163.803 85.6316 165.487 85.5957ZM185.75 85.5957V86.7437C184.524 86.7796 183.596 86.9231 182.965 87.1742C182.334 87.4224 181.904 87.8813 181.673 88.5509C181.443 89.2206 181.328 90.2625 181.328 91.6766V120.148C181.328 121.526 181.443 122.56 181.673 123.251C181.904 123.939 182.334 124.398 182.965 124.628C183.596 124.855 184.524 125.007 185.75 125.085V126.233C184.793 126.155 183.567 126.108 182.073 126.09C180.581 126.072 179.069 126.063 177.539 126.063C175.817 126.063 174.21 126.072 172.718 126.09C171.226 126.108 170.002 126.155 169.045 126.233V125.085C170.307 125.007 171.253 124.855 171.884 124.628C172.518 124.398 172.939 123.939 173.149 123.251C173.358 122.56 173.463 121.526 173.463 120.148V91.6766C173.463 90.2625 173.358 89.2206 173.149 88.5509C172.939 87.8813 172.518 87.4224 171.884 87.1742C171.253 86.9231 170.307 86.7796 169.045 86.7437V85.5957C170.002 85.6316 171.226 85.669 172.718 85.7079C174.21 85.7467 175.817 85.7662 177.539 85.7662C179.069 85.7662 180.581 85.7467 182.073 85.7079C183.567 85.669 184.793 85.6316 185.75 85.5957ZM203.598 84.9052C205.742 84.9052 207.388 85.1353 208.536 85.5957C209.684 86.0532 210.679 86.5494 211.522 87.0846C211.98 87.3536 212.352 87.5554 212.639 87.6899C212.926 87.8245 213.204 87.8917 213.473 87.8917C214.086 87.8917 214.506 87.0487 214.733 85.3626H216.056C216.017 86.092 215.969 86.9351 215.913 87.8917C215.856 88.8484 215.817 90.1205 215.796 91.7079C215.778 93.2954 215.769 95.3896 215.769 97.9906H214.446C214.333 96.0413 213.902 94.1669 213.155 92.3672C212.41 90.5674 211.358 89.0846 209.998 87.9187C208.64 86.7527 206.909 86.1697 204.805 86.1697C202.93 86.1697 201.371 86.7243 200.128 87.8334C198.884 88.9426 198.262 90.4344 198.262 92.3089C198.262 93.9173 198.663 95.267 199.464 96.3582C200.268 97.4465 201.407 98.4988 202.881 99.5152C204.355 100.529 206.105 101.686 208.132 102.986C210.01 104.212 211.694 105.427 213.186 106.632C214.678 107.837 215.854 109.167 216.715 110.623C217.576 112.076 218.007 113.855 218.007 115.959C218.007 118.447 217.394 120.514 216.168 122.161C214.945 123.806 213.3 125.03 211.231 125.834C209.165 126.635 206.908 127.036 204.459 127.036C202.202 127.036 200.413 126.806 199.092 126.345C197.773 125.888 196.636 125.411 195.679 124.915C194.836 124.377 194.186 124.108 193.728 124.108C193.115 124.108 192.694 124.951 192.464 126.637H191.145C191.22 125.755 191.266 124.722 191.284 123.538C191.305 122.351 191.325 120.81 191.343 118.915C191.364 117.019 191.374 114.619 191.374 111.713H192.692C192.845 114.161 193.275 116.448 193.984 118.574C194.692 120.696 195.784 122.408 197.258 123.708C198.731 125.009 200.693 125.659 203.141 125.659C205.129 125.659 206.832 125.096 208.249 123.969C209.666 122.838 210.374 121.125 210.374 118.829C210.374 116.495 209.57 114.542 207.962 112.973C206.353 111.403 204.249 109.816 201.648 108.21C199.848 107.062 198.163 105.895 196.594 104.708C195.027 103.521 193.775 102.173 192.836 100.663C191.9 99.1505 191.432 97.3224 191.432 95.1789C191.432 92.8081 192.006 90.8664 193.154 89.3537C194.302 87.8409 195.803 86.7213 197.657 85.9949C199.513 85.2684 201.494 84.9052 203.598 84.9052Z" fill="#6381A8"/>
<path fill-rule="evenodd" clip-rule="evenodd" d="M94.1601 133.736H98.6572V129.239H188.346V133.736H192.843V142.73H188.346V147.227H98.6572V142.73H94.1601V133.736Z" stroke="#6381A8" stroke-width="2.296" stroke-miterlimit="10" stroke-linejoin="round"/>
<path fill-rule="evenodd" clip-rule="evenodd" d="M96.8719 77.7737L143.501 66.3209L190.131 77.7737H96.8719Z" stroke="#6381A8" stroke-width="2.296" stroke-miterlimit="10" stroke-linejoin="round"/>
<path fill-rule="evenodd" clip-rule="evenodd" d="M186.55 81.8589H100.45V82.4283H186.55V81.8589Z" stroke="#6381A8" stroke-width="1.148" stroke-miterlimit="10" stroke-linejoin="round"/>
<path fill-rule="evenodd" clip-rule="evenodd" d="M189.422 138.019H97.5818V138.588H189.422V138.019Z" stroke="#6381A8" stroke-width="1.148" stroke-miterlimit="10" stroke-linejoin="round"/>
<path fill-rule="evenodd" clip-rule="evenodd" d="M185.119 133.365H101.884V133.935H185.119V133.365Z" stroke="#6381A8" stroke-width="1.148" stroke-miterlimit="10" stroke-linejoin="round"/>
<path fill-rule="evenodd" clip-rule="evenodd" d="M90.3466 139.753H196.65V148.756H90.3466V139.753Z" fill="white"/>
</svg>
